<svg id="visual" viewBox="0 0 900 600" width="900" height="600" xmlns="http://www.w3.org/2000/svg" xmlns:xlink="http://www.w3.org/1999/xlink" version="1.1"><rect x="0" y="0" width="900" height="600" fill="#FFFFFF"></rect><defs><linearGradient id="grad1_0" x1="33.3%" y1="0%" x2="100%" y2="100%"><stop offset="20%" stop-color="#000000" stop-opacity="1"></stop><stop offset="80%" stop-color="#000000" stop-opacity="1"></stop></linearGradient></defs><defs><linearGradient id="grad1_1" x1="33.3%" y1="0%" x2="100%" y2="100%"><stop offset="20%" stop-color="#000000" stop-opacity="1"></stop><stop offset="80%" stop-color="#4e4e4e" stop-opacity="1"></stop></linearGradient></defs><defs><linearGradient id="grad1_2" x1="33.3%" y1="0%" x2="100%" y2="100%"><stop offset="20%" stop-color="#a2a2a2" stop-opacity="1"></stop><stop offset="80%" stop-color="#4e4e4e" stop-opacity="1"></stop></linearGradient></defs><defs><linearGradient id="grad1_3" x1="33.3%" y1="0%" x2="100%" y2="100%"><stop offset="20%" stop-color="#a2a2a2" stop-opacity="1"></stop><stop offset="80%" stop-color="#ffffff" stop-opacity="1"></stop></linearGradient></defs><defs><linearGradient id="grad2_0" x1="0%" y1="0%" x2="66.7%" y2="100%"><stop offset="20%" stop-color="#000000" stop-opacity="1"></stop><stop offset="80%" stop-color="#000000" stop-opacity="1"></stop></linearGradient></defs><defs><linearGradient id="grad2_1" x1="0%" y1="0%" x2="66.7%" y2="100%"><stop offset="20%" stop-color="#4e4e4e" stop-opacity="1"></stop><stop offset="80%" stop-color="#000000" stop-opacity="1"></stop></linearGradient></defs><defs><linearGradient id="grad2_2" x1="0%" y1="0%" x2="66.7%" y2="100%"><stop offset="20%" stop-color="#4e4e4e" stop-opacity="1"></stop><stop offset="80%" stop-color="#a2a2a2" stop-opacity="1"></stop></linearGradient></defs><defs><linearGradient id="grad2_3" x1="0%" y1="0%" x2="66.7%" y2="100%"><stop offset="20%" stop-color="#ffffff" stop-opacity="1"></stop><stop offset="80%" stop-color="#a2a2a2" stop-opacity="1"></stop></linearGradient></defs><g transform="translate(900, 0)"><path d="M0 459.7C-34.9 459 -69.8 458.2 -102.3 448.2C-134.8 438.1 -164.8 418.8 -192.2 399.1C-219.6 379.5 -244.2 359.5 -271.8 340.9C-299.5 322.2 -330 304.8 -350.3 279.3C-370.5 253.8 -380.4 220.2 -392.8 189.2C-405.3 158.1 -420.3 129.7 -431.9 98.6C-443.5 67.5 -451.6 33.7 -459.7 0L0 0Z" fill="#d0d0d0"></path><path d="M0 344.8C-26.2 344.2 -52.4 343.7 -76.7 336.1C-101.1 328.6 -123.6 314.1 -144.2 299.3C-164.7 284.6 -183.2 269.7 -203.9 255.7C-224.6 241.7 -247.5 228.6 -262.7 209.5C-277.9 190.4 -285.3 165.2 -294.6 141.9C-304 118.6 -315.2 97.3 -323.9 73.9C-332.6 50.6 -338.7 25.3 -344.8 0L0 0Z" fill="#777777"></path><path d="M0 229.9C-17.5 229.5 -34.9 229.1 -51.1 224.1C-67.4 219.1 -82.4 209.4 -96.1 199.6C-109.8 189.7 -122.1 179.8 -135.9 170.4C-149.7 161.1 -165 152.4 -175.1 139.7C-185.2 126.9 -190.2 110.1 -196.4 94.6C-202.6 79.1 -210.2 64.8 -215.9 49.3C-221.7 33.7 -225.8 16.9 -229.9 0L0 0Z" fill="#292929"></path><path d="M0 114.9C-8.7 114.7 -17.5 114.6 -25.6 112C-33.7 109.5 -41.2 104.7 -48.1 99.8C-54.9 94.9 -61.1 89.9 -68 85.2C-74.9 80.6 -82.5 76.2 -87.6 69.8C-92.6 63.5 -95.1 55.1 -98.2 47.3C-101.3 39.5 -105.1 32.4 -108 24.6C-110.9 16.9 -112.9 8.4 -114.9 0L0 0Z" fill="#000000"></path></g><g transform="translate(0, 600)"><path d="M0 -459.7C34.1 -456.1 68.3 -452.5 101.7 -445.5C135.1 -438.6 167.8 -428.3 199.5 -414.2C231.1 -400.1 261.7 -382.3 285.6 -358.1C309.4 -333.9 326.5 -303.3 344.8 -275C363 -246.7 382.4 -220.7 399.1 -192.2C415.9 -163.7 430 -132.8 439.7 -100.4C449.4 -67.9 454.5 -34 459.7 0L0 0Z" fill="#d0d0d0"></path><path d="M0 -344.8C25.6 -342.1 51.2 -339.4 76.3 -334.2C101.3 -328.9 125.9 -321.2 149.6 -310.6C173.3 -300.1 196.3 -286.7 214.2 -268.6C232.1 -250.4 244.9 -227.4 258.6 -206.2C272.3 -185 286.8 -165.5 299.3 -144.2C311.9 -122.8 322.5 -99.6 329.8 -75.3C337 -50.9 340.9 -25.5 344.8 0L0 0Z" fill="#777777"></path><path d="M0 -229.9C17.1 -228.1 34.1 -226.3 50.8 -222.8C67.6 -219.3 83.9 -214.1 99.7 -207.1C115.6 -200.1 130.8 -191.1 142.8 -179C154.7 -166.9 163.3 -151.6 172.4 -137.5C181.5 -123.3 191.2 -110.3 199.6 -96.1C207.9 -81.9 215 -66.4 219.8 -50.2C224.7 -34 227.3 -17 229.9 0L0 0Z" fill="#292929"></path><path d="M0 -114.9C8.5 -114 17.1 -113.1 25.4 -111.4C33.8 -109.6 42 -107.1 49.9 -103.5C57.8 -100 65.4 -95.6 71.4 -89.5C77.4 -83.5 81.6 -75.8 86.2 -68.7C90.8 -61.7 95.6 -55.2 99.8 -48.1C104 -40.9 107.5 -33.2 109.9 -25.1C112.3 -17 113.6 -8.5 114.9 0L0 0Z" fill="#000000"></path></g></svg>