<svg id="visual" viewBox="0 0 960 540" width="960" height="540" xmlns="http://www.w3.org/2000/svg" xmlns:xlink="http://www.w3.org/1999/xlink" version="1.1"><rect x="0" y="0" width="960" height="540" fill="#fff"></rect><defs><linearGradient id="grad1_0" x1="43.8%" y1="0%" x2="100%" y2="100%"><stop offset="14.444444444444446%" stop-color="#000000" stop-opacity="1"></stop><stop offset="85.55555555555554%" stop-color="#000000" stop-opacity="1"></stop></linearGradient></defs><defs><linearGradient id="grad1_1" x1="43.8%" y1="0%" x2="100%" y2="100%"><stop offset="14.444444444444446%" stop-color="#000000" stop-opacity="1"></stop><stop offset="85.55555555555554%" stop-color="#4e4e4e" stop-opacity="1"></stop></linearGradient></defs><defs><linearGradient id="grad1_2" x1="43.8%" y1="0%" x2="100%" y2="100%"><stop offset="14.444444444444446%" stop-color="#a2a2a2" stop-opacity="1"></stop><stop offset="85.55555555555554%" stop-color="#4e4e4e" stop-opacity="1"></stop></linearGradient></defs><defs><linearGradient id="grad1_3" x1="43.8%" y1="0%" x2="100%" y2="100%"><stop offset="14.444444444444446%" stop-color="#a2a2a2" stop-opacity="1"></stop><stop offset="85.55555555555554%" stop-color="#ffffff" stop-opacity="1"></stop></linearGradient></defs><defs><linearGradient id="grad2_0" x1="0%" y1="0%" x2="56.3%" y2="100%"><stop offset="14.444444444444446%" stop-color="#000000" stop-opacity="1"></stop><stop offset="85.55555555555554%" stop-color="#000000" stop-opacity="1"></stop></linearGradient></defs><defs><linearGradient id="grad2_1" x1="0%" y1="0%" x2="56.3%" y2="100%"><stop offset="14.444444444444446%" stop-color="#4e4e4e" stop-opacity="1"></stop><stop offset="85.55555555555554%" stop-color="#000000" stop-opacity="1"></stop></linearGradient></defs><defs><linearGradient id="grad2_2" x1="0%" y1="0%" x2="56.3%" y2="100%"><stop offset="14.444444444444446%" stop-color="#4e4e4e" stop-opacity="1"></stop><stop offset="85.55555555555554%" stop-color="#a2a2a2" stop-opacity="1"></stop></linearGradient></defs><defs><linearGradient id="grad2_3" x1="0%" y1="0%" x2="56.3%" y2="100%"><stop offset="14.444444444444446%" stop-color="#ffffff" stop-opacity="1"></stop><stop offset="85.55555555555554%" stop-color="#a2a2a2" stop-opacity="1"></stop></linearGradient></defs><g transform="translate(960, 0)"><path d="M0 135C-10.5 121.2 -20.9 107.4 -33.4 102.7C-45.8 98.1 -60.3 102.6 -72.3 99.5C-84.3 96.4 -93.8 85.8 -103.6 75.2C-113.3 64.7 -123.1 54.2 -128.4 41.7C-133.7 29.2 -134.3 14.6 -135 0L0 0Z" fill="#d0d0d0"></path><path d="M0 101.3C-7.8 90.9 -15.7 80.5 -25 77C-34.4 73.5 -45.2 76.9 -54.2 74.6C-63.2 72.3 -70.4 64.3 -77.7 56.4C-84.9 48.5 -92.3 40.7 -96.3 31.3C-100.2 21.9 -100.7 10.9 -101.2 0L0 0Z" fill="#777777"></path><path d="M0 67.5C-5.2 60.6 -10.5 53.7 -16.7 51.4C-22.9 49 -30.1 51.3 -36.1 49.8C-42.2 48.2 -46.9 42.9 -51.8 37.6C-56.6 32.3 -61.6 27.1 -64.2 20.9C-66.8 14.6 -67.2 7.3 -67.5 0L0 0Z" fill="#292929"></path><path d="M0 33.8C-2.6 30.3 -5.2 26.8 -8.3 25.7C-11.5 24.5 -15.1 25.6 -18.1 24.9C-21.1 24.1 -23.5 21.4 -25.9 18.8C-28.3 16.2 -30.8 13.6 -32.1 10.4C-33.4 7.3 -33.6 3.6 -33.7 0L0 0Z" fill="#000000"></path></g><g transform="translate(0, 540)"><path d="M0 -135C14.4 -131.8 28.8 -128.7 39.6 -121.7C50.3 -114.8 57.4 -104 71.1 -97.9C84.8 -91.8 105.1 -90.2 109.2 -79.4C113.3 -68.5 101.1 -48.2 102.7 -33.4C104.3 -18.6 119.7 -9.3 135 0L0 0Z" fill="#d0d0d0"></path><path d="M0 -101.2C10.8 -98.9 21.6 -96.5 29.7 -91.3C37.7 -86.1 43.1 -78 53.3 -73.4C63.6 -68.8 78.9 -67.7 81.9 -59.5C85 -51.3 75.8 -36.1 77 -25C78.2 -13.9 89.7 -7 101.3 0L0 0Z" fill="#777777"></path><path d="M0 -67.5C7.2 -65.9 14.4 -64.3 19.8 -60.9C25.2 -57.4 28.7 -52 35.6 -48.9C42.4 -45.9 52.6 -45.1 54.6 -39.7C56.6 -34.2 50.6 -24.1 51.4 -16.7C52.2 -9.3 59.8 -4.6 67.5 0L0 0Z" fill="#292929"></path><path d="M0 -33.7C3.6 -33 7.2 -32.2 9.9 -30.4C12.6 -28.7 14.4 -26 17.8 -24.5C21.2 -22.9 26.3 -22.6 27.3 -19.8C28.3 -17.1 25.3 -12 25.7 -8.3C26.1 -4.6 29.9 -2.3 33.8 0L0 0Z" fill="#000000"></path></g></svg>