<svg id="visual" viewBox="0 0 900 600" width="900" height="600" xmlns="http://www.w3.org/2000/svg" xmlns:xlink="http://www.w3.org/1999/xlink" version="1.1"><rect x="0" y="0" width="900" height="600" fill="#FFFFFF"></rect><defs><linearGradient id="grad1_0" x1="33.3%" y1="0%" x2="100%" y2="100%"><stop offset="20%" stop-color="#000000" stop-opacity="1"></stop><stop offset="80%" stop-color="#000000" stop-opacity="1"></stop></linearGradient></defs><defs><linearGradient id="grad1_1" x1="33.3%" y1="0%" x2="100%" y2="100%"><stop offset="20%" stop-color="#000000" stop-opacity="1"></stop><stop offset="80%" stop-color="#3b3b3b" stop-opacity="1"></stop></linearGradient></defs><defs><linearGradient id="grad1_2" x1="33.3%" y1="0%" x2="100%" y2="100%"><stop offset="20%" stop-color="#777777" stop-opacity="1"></stop><stop offset="80%" stop-color="#3b3b3b" stop-opacity="1"></stop></linearGradient></defs><defs><linearGradient id="grad1_3" x1="33.3%" y1="0%" x2="100%" y2="100%"><stop offset="20%" stop-color="#777777" stop-opacity="1"></stop><stop offset="80%" stop-color="#b9b9b9" stop-opacity="1"></stop></linearGradient></defs><defs><linearGradient id="grad1_4" x1="33.3%" y1="0%" x2="100%" y2="100%"><stop offset="20%" stop-color="#ffffff" stop-opacity="1"></stop><stop offset="80%" stop-color="#b9b9b9" stop-opacity="1"></stop></linearGradient></defs><defs><linearGradient id="grad2_0" x1="0%" y1="0%" x2="66.7%" y2="100%"><stop offset="20%" stop-color="#000000" stop-opacity="1"></stop><stop offset="80%" stop-color="#000000" stop-opacity="1"></stop></linearGradient></defs><defs><linearGradient id="grad2_1" x1="0%" y1="0%" x2="66.7%" y2="100%"><stop offset="20%" stop-color="#3b3b3b" stop-opacity="1"></stop><stop offset="80%" stop-color="#000000" stop-opacity="1"></stop></linearGradient></defs><defs><linearGradient id="grad2_2" x1="0%" y1="0%" x2="66.7%" y2="100%"><stop offset="20%" stop-color="#3b3b3b" stop-opacity="1"></stop><stop offset="80%" stop-color="#777777" stop-opacity="1"></stop></linearGradient></defs><defs><linearGradient id="grad2_3" x1="0%" y1="0%" x2="66.7%" y2="100%"><stop offset="20%" stop-color="#b9b9b9" stop-opacity="1"></stop><stop offset="80%" stop-color="#777777" stop-opacity="1"></stop></linearGradient></defs><defs><linearGradient id="grad2_4" x1="0%" y1="0%" x2="66.7%" y2="100%"><stop offset="20%" stop-color="#b9b9b9" stop-opacity="1"></stop><stop offset="80%" stop-color="#ffffff" stop-opacity="1"></stop></linearGradient></defs><g transform="translate(900, 0)"><path d="M0 459.7C-33.2 450.7 -66.5 441.7 -98.8 432.9C-131.1 424 -162.6 415.4 -194.8 404.5C-227.1 393.7 -260.1 380.7 -286.6 359.4C-313.1 338.1 -333 308.5 -349.5 278.7C-366 248.9 -379.2 218.9 -392.8 189.2C-406.5 159.5 -420.7 130.1 -431.9 98.6C-443.1 67.1 -451.4 33.5 -459.7 0L0 0Z" fill="#dbdbdb"></path><path d="M0 367.8C-26.6 360.6 -53.2 353.4 -79 346.3C-104.9 339.2 -130 332.3 -155.9 323.6C-181.7 315 -208.1 304.6 -229.3 287.5C-250.5 270.5 -266.4 246.8 -279.6 223C-292.8 199.1 -303.3 175.1 -314.3 151.3C-325.2 127.6 -336.5 104 -345.5 78.9C-354.5 53.7 -361.1 26.8 -367.8 0L0 0Z" fill="#979797"></path><path d="M0 275.8C-19.9 270.4 -39.9 265 -59.3 259.7C-78.7 254.4 -97.5 249.2 -116.9 242.7C-136.2 236.2 -156.1 228.4 -172 215.6C-187.9 202.9 -199.8 185.1 -209.7 167.2C-219.6 149.3 -227.5 131.3 -235.7 113.5C-243.9 95.7 -252.4 78 -259.1 59.1C-265.9 40.3 -270.8 20.1 -275.8 0L0 0Z" fill="#585858"></path><path d="M0 183.9C-13.3 180.3 -26.6 176.7 -39.5 173.1C-52.5 169.6 -65 166.1 -77.9 161.8C-90.8 157.5 -104.1 152.3 -114.6 143.8C-125.2 135.2 -133.2 123.4 -139.8 111.5C-146.4 99.6 -151.7 87.6 -157.1 75.7C-162.6 63.8 -168.3 52 -172.8 39.4C-177.2 26.8 -180.6 13.4 -183.9 0L0 0Z" fill="#212121"></path><path d="M0 91.9C-6.6 90.1 -13.3 88.3 -19.8 86.6C-26.2 84.8 -32.5 83.1 -39 80.9C-45.4 78.7 -52 76.1 -57.3 71.9C-62.6 67.6 -66.6 61.7 -69.9 55.7C-73.2 49.8 -75.8 43.8 -78.6 37.8C-81.3 31.9 -84.1 26 -86.4 19.7C-88.6 13.4 -90.3 6.7 -91.9 0L0 0Z" fill="#000000"></path></g><g transform="translate(0, 600)"><path d="M0 -459.7C35.1 -458.9 70.1 -458.2 102.3 -448.2C134.5 -438.2 163.7 -419 194.4 -403.6C225 -388.2 257 -376.6 285.6 -358.1C314.1 -339.6 339.2 -314.2 358.1 -285.6C377 -256.9 389.7 -225.1 402.7 -193.9C415.8 -162.8 429.2 -132.3 438.7 -100.1C448.3 -67.9 454 -34 459.7 0L0 0Z" fill="#dbdbdb"></path><path d="M0 -367.8C28 -367.1 56.1 -366.5 81.8 -358.5C107.6 -350.6 131 -335.2 155.5 -322.9C180 -310.6 205.6 -301.3 228.4 -286.5C251.3 -271.7 271.3 -251.3 286.5 -228.4C301.6 -205.6 311.7 -180.1 322.2 -155.2C332.6 -130.2 343.3 -105.9 351 -80.1C358.6 -54.3 363.2 -27.2 367.8 0L0 0Z" fill="#979797"></path><path d="M0 -275.8C21 -275.4 42.1 -274.9 61.4 -268.9C80.7 -262.9 98.2 -251.4 116.6 -242.2C135 -232.9 154.2 -226 171.3 -214.8C188.5 -203.7 203.5 -188.5 214.8 -171.3C226.2 -154.2 233.8 -135.1 241.6 -116.4C249.5 -97.7 257.5 -79.4 263.2 -60.1C269 -40.8 272.4 -20.4 275.8 0L0 0Z" fill="#585858"></path><path d="M0 -183.9C14 -183.6 28 -183.3 40.9 -179.3C53.8 -175.3 65.5 -167.6 77.8 -161.5C90 -155.3 102.8 -150.6 114.2 -143.2C125.6 -135.8 135.7 -125.7 143.2 -114.2C150.8 -102.8 155.9 -90 161.1 -77.6C166.3 -65.1 171.7 -52.9 175.5 -40.1C179.3 -27.2 181.6 -13.6 183.9 0L0 0Z" fill="#212121"></path><path d="M0 -91.9C7 -91.8 14 -91.6 20.5 -89.6C26.9 -87.6 32.7 -83.8 38.9 -80.7C45 -77.6 51.4 -75.3 57.1 -71.6C62.8 -67.9 67.8 -62.8 71.6 -57.1C75.4 -51.4 77.9 -45 80.5 -38.8C83.2 -32.6 85.8 -26.5 87.7 -20C89.7 -13.6 90.8 -6.8 91.9 0L0 0Z" fill="#000000"></path></g></svg>